<?xml version="1.0" standalone="no"?>
<!DOCTYPE svg PUBLIC "-//W3C//DTD SVG 20010904//EN"
 "http://www.w3.org/TR/2001/REC-SVG-20010904/DTD/svg10.dtd">
<svg version="1.0" xmlns="http://www.w3.org/2000/svg"
 width="512.000000pt" height="512.000000pt" viewBox="0 0 512.000000 512.000000"
 preserveAspectRatio="xMidYMid meet">

<g transform="translate(0.000000,512.000000) scale(0.100000,-0.100000)"
fill="#000000" stroke="none">
<path d="M210 4947 c-34 -17 -53 -58 -41 -89 5 -12 267 -281 583 -595 521
-521 576 -573 606 -573 42 0 72 30 72 72 0 30 -52 85 -577 609 -318 318 -587
580 -598 583 -11 3 -31 0 -45 -7z"/>
<path d="M2530 4947 c-41 -21 -51 -53 -48 -159 3 -85 6 -100 25 -119 29 -29
77 -29 106 0 20 20 22 32 22 131 0 96 -2 112 -20 129 -28 27 -56 33 -85 18z"/>
<path d="M4855 4950 c-11 -5 -278 -266 -592 -582 -521 -521 -573 -576 -573
-606 0 -42 30 -72 72 -72 30 0 85 53 612 579 520 520 579 582 579 611 0 50
-54 89 -98 70z"/>
<path d="M1618 4706 c-201 -54 -234 -329 -50 -429 113 -61 252 -21 314 90 102
181 -63 392 -264 339z m119 -168 c51 -48 15 -138 -56 -138 -47 0 -81 32 -81
79 0 72 84 109 137 59z"/>
<path d="M3378 4706 c-201 -54 -234 -329 -50 -429 113 -61 252 -21 314 90 102
181 -63 392 -264 339z m119 -168 c51 -48 15 -138 -56 -138 -47 0 -81 32 -81
79 0 72 84 109 137 59z"/>
<path d="M2535 4470 c-12 -4 -26 -15 -33 -23 -7 -8 -46 -190 -85 -404 l-73
-388 108 -3 c59 -1 157 -1 216 0 l108 3 -73 389 c-75 403 -79 416 -128 429
-11 3 -29 2 -40 -3z"/>
<path d="M565 3660 c-13 -6 13 -9 75 -9 62 0 88 3 75 9 -11 5 -45 9 -75 9 -30
0 -64 -4 -75 -9z"/>
<path d="M4405 3660 c-13 -6 13 -9 75 -9 62 0 88 3 75 9 -11 5 -45 9 -75 9
-30 0 -64 -4 -75 -9z"/>
</g>
</svg>
